<svg width="500" height="316" fill="none" xmlns="http://www.w3.org/2000/svg"><path d="M473.506 289.41c-12.21 0-21.017-5.732-26.177-17.033a1.359 1.359 0 01-.031-1.042c.133-.337.399-.613.715-.756l13.416-5.967c.184-.082.357-.112.552-.112.459 0 .909.245 1.154.653 3.137 5.222 3.873 5.855 4.108 6.059 2.145 1.911 4.352 2.882 6.549 2.882 6.733 0 7.745-4.455 7.745-7.101 0-3.086-3.607-5.477-6.304-6.999a282.187 282.187 0 00-4.905-2.279 418.502 418.502 0 01-5.068-2.319c-4.894-2.299-8.409-4.649-10.442-6.989-2.646-3.035-3.985-6.968-3.985-11.689 0-6.202 2.248-11.413 6.703-15.479 4.516-4.036 10.064-6.09 16.491-6.09 9.38 0 16.491 4.639 21.099 13.773a1.373 1.373 0 01-.592 1.819l-12.966 6.6a1.52 1.52 0 01-.675.164c-.388 0-.909-.164-1.103-.644-1.461-3.739-2.841-7.264-7.949-7.264-1.39 0-2.729.449-3.566 1.185-.951.858-1.533 2.023-1.564 3.147-.122 4.771 2.258 6.14 9.666 9.144l.736.297c8.409 3.463 15.06 6.202 18.054 9.185 3.198 3.209 4.833 7.582 4.833 12.987 0 6.866-2.677 12.69-7.97 17.308-5.098 4.353-11.331 6.56-18.524 6.56zm-35.894-2.636h-13.017a2.06 2.06 0 01-2.064-2.074v-36.814c0-8.603-6.999-15.602-15.582-15.602-8.603 0-15.592 6.999-15.592 15.602V284.7c0 1.144-.93 2.074-2.064 2.074h-13.017a2.061 2.061 0 01-2.064-2.074v-36.814c0-18.065 14.683-32.747 32.758-32.747 18.054 0 32.736 14.692 32.736 32.747V284.7a2.093 2.093 0 01-2.094 2.074zM328.887 289.4c-20.476 0-37.14-16.655-37.14-37.131 0-20.466 16.664-37.13 37.14-37.13 20.466 0 37.131 16.654 37.131 37.13 0 20.476-16.665 37.131-37.131 37.131zm0-56.984c-10.943 0-19.863 8.91-19.863 19.853 0 10.943 8.92 19.853 19.863 19.853s19.843-8.9 19.843-19.853c0-10.943-8.9-19.853-19.843-19.853zm-70.02 56.994c-12.21 0-21.018-5.732-26.178-17.033a1.37 1.37 0 01-.051-1.042c.143-.337.399-.613.726-.756l13.415-5.967a1.33 1.33 0 01.552-.112c.47 0 .909.245 1.155.653 3.136 5.222 3.862 5.855 4.107 6.059 2.146 1.911 4.353 2.882 6.549 2.882 6.734 0 7.745-4.455 7.745-7.101 0-3.086-3.596-5.477-6.304-6.999a252.65 252.65 0 00-4.914-2.279 404.885 404.885 0 01-5.068-2.319c-4.895-2.299-8.409-4.649-10.443-6.989-2.646-3.035-3.995-6.968-3.995-11.689 0-6.202 2.258-11.413 6.713-15.479 4.516-4.036 10.064-6.09 16.491-6.09 9.38 0 16.481 4.639 21.099 13.773a1.355 1.355 0 01-.592 1.819l-12.976 6.6c-.205.103-.44.164-.665.164-.388 0-.919-.164-1.103-.644-1.461-3.739-2.851-7.264-7.949-7.264-1.39 0-2.728.449-3.566 1.185-.94.858-1.523 2.023-1.553 3.147-.133 4.771 2.258 6.14 9.666 9.144l.735.297c8.419 3.463 15.071 6.202 18.065 9.185 3.198 3.209 4.833 7.582 4.833 12.987 0 6.866-2.688 12.69-7.97 17.308-5.099 4.353-11.331 6.56-18.524 6.56zm-71.227 0c-20.138 0-36.435-15.786-37.079-35.935-.654-20.466 15.449-37.652 35.915-38.306 20.649-.684 37.641 15.357 38.305 35.915.02.47.02.94.01 1.41 0 .051.01.112.01.174v34.218a2.065 2.065 0 01-2.064 2.064H209.72a2.059 2.059 0 01-2.064-2.064v-3.3c-5.609 3.586-12.026 5.579-18.779 5.803-.419.011-.828.021-1.237.021zm.041-56.983l-.654.01c-10.943.358-19.556 9.543-19.209 20.476.358 10.769 9.053 19.209 19.833 19.209l.653-.01c5.303-.174 10.218-2.391 13.835-6.254 3.627-3.862 5.528-8.919 5.364-14.222-.347-10.77-9.053-19.209-19.822-19.209zM106.033 289.4c-20.476 0-37.13-16.655-37.13-37.131 0-20.466 16.654-37.13 37.13-37.13 20.466 0 37.12 16.654 37.12 37.13 0 .552-.02 1.104-.03 1.645a2.062 2.062 0 01-2.064 1.982H86.518c1.706 9.257 9.89 16.216 19.515 16.216a19.822 19.822 0 0017.503-10.494 2.055 2.055 0 011.829-1.093h14.192a2.058 2.058 0 011.972 2.667c-4.823 15.684-19.087 26.208-35.496 26.208zm-18.371-47.41h36.742c-4.056-7.254-10.933-11.76-18.371-11.76-7.438 0-14.315 4.496-18.371 11.76zM32.876 315.7c-8.849 0-16.287-2.596-22.121-7.715-5.732-5.108-9.329-12.312-10.729-21.426a2.055 2.055 0 011.604-2.339l14.754-3.137a2.16 2.16 0 011.635.337c.47.347.767.858.848 1.441.777 6.283 2.085 9.062 3.066 10.278 2.656 3.546 6.396 5.232 11.505 5.232 4.025 0 7.254-1.247 9.88-3.801 2.605-2.544 3.872-5.702 3.872-9.645 0-1.574-.214-3.004-.664-4.292-.429-1.246-1.124-2.411-2.054-3.464-.96-1.103-2.237-2.166-3.82-3.167-1.646-1.032-3.638-2.044-5.937-2.994l-9.288-3.719c-14.018-5.701-21.12-14.274-21.12-25.493 0-7.581 3.035-13.998 9.043-19.076 5.895-5.027 13.303-7.591 22.029-7.591 11.852 0 21.211 5.578 27.832 16.593.287.47.368 1.052.235 1.594-.153.541-.49.991-.98 1.267l-11.812 6.743a2.059 2.059 0 01-2.8-.735c-2.513-4.179-4.403-5.835-5.548-6.478-1.829-1.114-4.168-1.655-7.06-1.655-3.566 0-6.437.919-8.746 2.84-2.197 1.778-3.25 3.944-3.25 6.601 0 3.586 3.086 6.62 9.197 9.042l9.624 3.791c8.123 3.157 14.193 7.121 18.024 11.77 3.924 4.762 5.916 10.647 5.916 17.483 0 9.103-3.208 16.746-9.523 22.703-6.324 5.987-14.274 9.012-23.612 9.012zm420.481-114.702h-25.891c-2.268 0-4.118-1.839-4.118-4.097v-73.24c.01-35.914 29.222-65.126 65.137-65.126a4.101 4.101 0 014.107 4.107v25.892a4.103 4.103 0 01-4.107 4.117c-17.094 0-31.02 13.906-31.02 31.01v73.24a4.1 4.1 0 01-4.108 4.097zm-119.862 4.628c-35.914 0-65.126-29.222-65.126-65.136V67.26a4.108 4.108 0 014.107-4.107h25.892a4.095 4.095 0 014.107 4.108v73.229c0 17.104 13.916 31.02 31.02 31.02s31.021-13.906 31.021-31.02V67.26a4.11 4.11 0 014.117-4.107h25.881a4.101 4.101 0 014.108 4.108v73.229c0 35.914-29.222 65.136-65.127 65.136z" fill="#221714"/><path d="M163.057 59.546c-31.296 5.017-56.043 29.478-61.295 60.652-.981 3.964 1.451 6.457 5.528 6.457h52.6c4.853 0 8.848-3.975 8.848-8.838V65.33c-.01-4.006-2.238-6.335-5.681-5.784zm23.132 0c31.276 5.017 56.044 29.478 61.285 60.652.991 3.964-1.451 6.457-5.517 6.457h-52.61c-4.854 0-8.838-3.975-8.838-8.838V65.33c0-4.006 2.217-6.335 5.68-5.784zm-23.132 145.988c-31.296-5.017-56.043-29.457-61.295-60.661-.981-3.965 1.451-6.447 5.528-6.447h52.6c4.853 0 8.848 3.974 8.848 8.838v52.487c-.01 4.026-2.238 6.345-5.681 5.783zm23.132 0c31.276-5.017 56.044-29.457 61.285-60.661.991-3.965-1.451-6.447-5.517-6.447h-52.61c-4.854 0-8.838 3.974-8.838 8.838v52.487c0 4.026 2.217 6.345 5.68 5.783z" fill="#CDA83F"/><path d="M37.402 200.998H11.511a4.108 4.108 0 01-4.108-4.108V66.126C7.403 30.212 33.56 1 72.53 1 80.5 1 97.5.744 98.687 1c2.313.5 4.107 1.84 4.107 4.118v25.88a4.108 4.108 0 01-4.107 4.108H72.53c-16.093 0-29.365 12.332-30.878 28.037h47.185a4.101 4.101 0 014.107 4.107v25.902a4.108 4.108 0 01-4.107 4.107H41.499v99.631a4.093 4.093 0 01-4.097 4.108z" fill="#221714"/></svg>